<svg data-name="구성 요소 64 – 1" xmlns="http://www.w3.org/2000/svg" width="42" height="30.44" viewBox="0 0 42 30.44">
    <path data-name="사각형 6" style="fill:transparent" d="M0 0h10.4v10.4H0z" transform="translate(16 15.014)"/>
    <path d="m606.188 368.569.963.925c.532.511.276 1.121 0 1.85a21.949 21.949 0 0 1-3.035 3.813 20.516 20.516 0 0 1-3.945 2.9c-.7.347-1.394.511-1.926 0l-.963-.925a.6.6 0 0 1 0-.925l1.926-1.388a.747.747 0 0 1 .963 0l.57.547a19.134 19.134 0 0 0 2.078-1.7 16.138 16.138 0 0 0 1.552-1.747l-.589-.566a.677.677 0 0 1 0-.925l1.444-1.85a.7.7 0 0 1 .963 0" transform="translate(-581.062 -353.164)" style="fill:#35baaa;fill-rule:evenodd"/>
    <path data-name="사각형 54" style="fill:transparent" d="M0 0h42v30.44H0z"/>
</svg>
