<svg data-name="구성 요소 63 – 1" xmlns="http://www.w3.org/2000/svg" width="42" height="30.44" viewBox="0 0 42 30.44">
    <path data-name="사각형 53" style="fill:transparent" d="M0 0h42v30.44H0z"/>
    <path d="M658 363.959a.446.446 0 0 1-.648 0l-1.315-1.372v7.567a.459.459 0 1 1-.917 0v-7.567l-1.315 1.372a.446.446 0 0 1-.648 0 .494.494 0 0 1 0-.676l1.945-2.028c.006-.006.013-.007.019-.013v-.011c.293-.446.638-.432.917 0v.011c.005.005.013.007.019.013l1.943 2.028a.493.493 0 0 1 0 .676zm-4.889 4.561-1.945 2.028c-.006.006-.013.008-.019.013v.011c-.278.432-.623.446-.917 0v-.011c-.005-.005-.013-.007-.019-.013l-1.944-2.028a.493.493 0 0 1 0-.676.445.445 0 0 1 .648 0l1.315 1.371v-7.565a.459.459 0 1 1 .917 0v7.566l1.315-1.371a.445.445 0 0 1 .648 0 .493.493 0 0 1 .003.675z" transform="translate(-631.936 -345.888)" style="fill:#35baaa;stroke:transparent;stroke-miterlimit:10;fill-rule:evenodd"/>
    <path data-name="사각형 5" style="fill:transparent" d="M0 0h10.4v10.4H0z" transform="translate(16 15.014)"/>
</svg>
