<?xml version="1.0" encoding="utf-8"?>
<!-- Generator: Adobe Illustrator 26.2.1, SVG Export Plug-In . SVG Version: 6.00 Build 0)  -->
<svg version="1.1" id="레이어_1" xmlns="http://www.w3.org/2000/svg" xmlns:xlink="http://www.w3.org/1999/xlink" x="0px"
	 y="0px" viewBox="0 0 42 30.4" style="enable-background:new 0 0 42 30.4;" xml:space="preserve">
<style type="text/css">
	.st0{fill-rule:evenodd;clip-rule:evenodd;fill:#CCCCCC;}
</style>
<path class="st0" d="M26.1,18.1c-0.2,0.2-0.5,0.2-0.6,0c0,0,0,0,0,0l-1.3-1.4v7.6c0,0.3-0.2,0.5-0.4,0.5c-0.3,0-0.5-0.2-0.5-0.4
	c0,0,0,0,0,0v-7.6l-1.3,1.4c-0.2,0.2-0.5,0.2-0.6,0c0,0,0,0,0,0c-0.2-0.2-0.2-0.5,0-0.7l1.9-2c0,0,0,0,0,0v0c0.3-0.4,0.6-0.4,0.9,0
	v0c0,0,0,0,0,0l1.9,2C26.2,17.6,26.2,17.9,26.1,18.1L26.1,18.1z M21.2,22.6l-1.9,2c0,0,0,0,0,0v0c-0.3,0.4-0.6,0.4-0.9,0v0
	c0,0,0,0,0,0l-1.9-2c-0.2-0.2-0.2-0.5,0-0.7c0.2-0.2,0.5-0.2,0.6,0c0,0,0,0,0,0l1.3,1.4v-7.6c0-0.3,0.2-0.5,0.4-0.5
	c0.3,0,0.5,0.2,0.5,0.4c0,0,0,0,0,0v7.6l1.3-1.4c0.2-0.2,0.5-0.2,0.6,0c0,0,0,0,0,0C21.4,22.1,21.4,22.4,21.2,22.6L21.2,22.6z"/>
</svg>
