<svg xmlns="http://www.w3.org/2000/svg" width="33" height="33" viewBox="0 0 33 33">
  <defs>
    <style>
      .cls-1 {
        stroke: #000;
        stroke-width: 1px;
        fill-rule: evenodd;
      }
    </style>
  </defs>
  <path id="_4" data-name="4" class="cls-1" d="M30.8,30.809a0.955,0.955,0,0,1-1.335,0l-7.561-7.441a12.339,12.339,0,0,1-7.724,2.7A12.176,12.176,0,0,1,1.912,13.989,12.176,12.176,0,0,1,14.184,1.912,12.176,12.176,0,0,1,26.457,13.989a11.912,11.912,0,0,1-3.183,8.095L30.8,29.495A0.919,0.919,0,0,1,30.8,30.809ZM14.184,3.77A10.3,10.3,0,0,0,3.8,13.989,10.3,10.3,0,0,0,14.184,24.208,10.3,10.3,0,0,0,24.568,13.989,10.3,10.3,0,0,0,14.184,3.77Z"/>
</svg>
