<?xml version="1.0" encoding="utf-8"?>
<!-- Generator: Adobe Illustrator 26.2.1, SVG Export Plug-In . SVG Version: 6.00 Build 0)  -->
<svg version="1.1" id="레이어_1" xmlns="http://www.w3.org/2000/svg" xmlns:xlink="http://www.w3.org/1999/xlink" x="0px"
	 y="0px" viewBox="0 0 42 30.4" style="enable-background:new 0 0 42 30.4;" xml:space="preserve">
<style type="text/css">
	.st0{fill-rule:evenodd;clip-rule:evenodd;fill:#CCCCCC;}
</style>
<path class="st0" d="M25.1,15.4l1,0.9c0.5,0.5,0.3,1.1,0,1.9c-0.9,1.4-1.9,2.7-3,3.8c-1.2,1.1-2.5,2.1-3.9,2.9
	c-0.7,0.3-1.4,0.5-1.9,0l-1-0.9c-0.3-0.2-0.3-0.6-0.1-0.8c0,0,0.1-0.1,0.1-0.1l1.9-1.4c0.3-0.2,0.7-0.2,1,0l0.6,0.5
	c0.7-0.5,1.4-1.1,2.1-1.7c0.6-0.5,1.1-1.1,1.6-1.7l-0.6-0.6c-0.2-0.3-0.2-0.7,0-0.9l1.4-1.9C24.4,15.2,24.9,15.2,25.1,15.4"/>
</svg>
