<svg xmlns="http://www.w3.org/2000/svg" width="49" height="35.955">
    <g data-name="225">
        <path data-name="패스 37" d="M721.8 334.806a19.863 19.863 0 0 0 1.554-4.5 18.612 18.612 0 0 0 .418-4.007 19.381 19.381 0 0 0-.486-4.26 20.225 20.225 0 0 0-.949-3.017 18.57 18.57 0 0 0-1.816-3.415 20.973 20.973 0 0 0-2.452-3.018 18.674 18.674 0 0 0-3.4-2.731c.024.014-1.774-.98-3.414-1.712a36.4 36.4 0 0 0-3.594-1.025 20.079 20.079 0 0 0-8.585.32 20.524 20.524 0 0 0-4.011 1.514 19.254 19.254 0 0 0-3.254 2.071 20.983 20.983 0 0 0-2.41 2.2 18.282 18.282 0 0 0-2.117 2.746 20.206 20.206 0 0 0-1.507 2.9 18.168 18.168 0 0 0-1.026 3.26 19.3 19.3 0 0 0-.439 4.164 19.987 19.987 0 0 0 .456 4.174 18.681 18.681 0 0 0 1.7 4.676l-3.668 2.194a24.1 24.1 0 0 1-2.083-5.443 22.806 22.806 0 0 1-.674-5.594 23.569 23.569 0 0 1 .618-5.313 24.193 24.193 0 0 1 1.691-4.809 23.092 23.092 0 0 1 2.154-3.626 25.231 25.231 0 0 1 2.061-2.509 22.821 22.821 0 0 1 3.445-3.009 24.825 24.825 0 0 1 3.795-2.212 23.109 23.109 0 0 1 4.547-1.584 24.3 24.3 0 0 1 5.69-.658 24.615 24.615 0 0 1 4.114.356c1.168.187 4.61 1.267 4.61 1.267a22.949 22.949 0 0 1 4.243 2.153 25.276 25.276 0 0 1 3.657 2.836 22.81 22.81 0 0 1 3.066 3.515 24.291 24.291 0 0 1 2.456 4.4 22.317 22.317 0 0 1 1.256 3.85 23.47 23.47 0 0 1 .6 5.342 24.135 24.135 0 0 1-.6 5.272 22.81 22.81 0 0 1-1.928 5.318z" transform="translate(-679.54 -302.084)" style="fill:none;fill-rule:evenodd"/>
        <path data-name="195" d="M-288.27-454.686a22.84 22.84 0 0 1-.673-5.594 23.578 23.578 0 0 1 .617-5.313 24.191 24.191 0 0 1 1.691-4.81 23.067 23.067 0 0 1 2.154-3.626 25.293 25.293 0 0 1 2.061-2.509 22.809 22.809 0 0 1 3.445-3.01 24.9 24.9 0 0 1 3.794-2.211 23.144 23.144 0 0 1 4.547-1.584 24.267 24.267 0 0 1 5.69-.658 24.639 24.639 0 0 1 4.114.355c.083.013.178.031.283.053l2.791.748c.857.253 1.536.466 1.536.466a22.95 22.95 0 0 1 4.243 2.153 25.252 25.252 0 0 1 3.657 2.836 22.838 22.838 0 0 1 3.066 3.515 24.314 24.314 0 0 1 2.455 4.4 22.246 22.246 0 0 1 1.256 3.849 23.477 23.477 0 0 1 .6 5.342 24.171 24.171 0 0 1-.6 5.272q-.072.332-.16.675l-4.131-1.107q.106-.4.2-.835a18.608 18.608 0 0 0 .418-4.007 19.384 19.384 0 0 0-.486-4.261 20.294 20.294 0 0 0-.949-3.017 18.59 18.59 0 0 0-1.815-3.415 21.022 21.022 0 0 0-2.452-3.018 18.641 18.641 0 0 0-3.4-2.731 53.286 53.286 0 0 0-3.413-1.713 36 36 0 0 0-3.594-1.024 19.907 19.907 0 0 0-3.618-.319 20.017 20.017 0 0 0-4.968.638 20.547 20.547 0 0 0-4.01 1.514 19.289 19.289 0 0 0-3.254 2.071 21.052 21.052 0 0 0-2.41 2.205 18.268 18.268 0 0 0-2.115 2.756 20.2 20.2 0 0 0-1.507 2.9 18.1 18.1 0 0 0-1.027 3.26 19.325 19.325 0 0 0-.439 4.164 19.958 19.958 0 0 0 .456 4.174 18.671 18.671 0 0 0 1.7 4.676l-3.666 2.188a24.142 24.142 0 0 1-2.087-5.448z" transform="translate(289.444 484.5)" style="fill:#35baaa;stroke:transparent;stroke-miterlimit:10"/>
    </g>
</svg>
