<?xml version="1.0" encoding="utf-8"?>
<!-- Generator: Adobe Illustrator 26.2.1, SVG Export Plug-In . SVG Version: 6.00 Build 0)  -->
<svg version="1.1" id="레이어_1" xmlns="http://www.w3.org/2000/svg" xmlns:xlink="http://www.w3.org/1999/xlink" x="0px"
	 y="0px" viewBox="0 0 42 30.4" style="enable-background:new 0 0 42 30.4;" xml:space="preserve">
<style type="text/css">
	.st0{fill-rule:evenodd;clip-rule:evenodd;fill:#CCCCCC;}
</style>
<path class="st0" d="M25.4,24.4H17c-0.6,0-1-0.5-1-1c0,0,0,0,0,0v-6.1c0-0.6,0.4-1,1-1c0,0,0,0,0,0h8.5c0.6,0,1,0.5,1,1c0,0,0,0,0,0
	v6.1C26.4,23.9,26,24.4,25.4,24.4C25.4,24.4,25.4,24.4,25.4,24.4z M25.2,17.8c-0.2-0.2-0.5-0.2-0.7,0c0,0,0,0,0,0l-3.4,2.9l-3.4-2.9
	c-0.2-0.2-0.5-0.2-0.7,0c0,0,0,0,0,0c-0.2,0.2-0.2,0.5,0,0.7l3.8,3.3c0.2,0.2,0.4,0.2,0.6,0l3.8-3.3C25.4,18.3,25.4,18,25.2,17.8
	L25.2,17.8z"/>
</svg>
