<?xml version="1.0" encoding="UTF-8"?>
<svg id="_레이어_2" data-name="레이어 2" xmlns="http://www.w3.org/2000/svg" viewBox="0 0 55.54 14.83">
  <defs>
    <style>
      .cls-1 {
        fill: #fff;
        stroke-width: 0px;
      }
    </style>
  </defs>
  <g id="_격리_모드" data-name="격리 모드">
    <path class="cls-1" d="m8.8,6.89c-.01-1.64,1.34-2.43,1.4-2.47-.77-1.12-1.96-1.27-2.38-1.28-1-.1-1.97.6-2.48.6s-1.3-.59-2.15-.57c-1.09.02-2.1.65-2.66,1.62-1.15,1.99-.29,4.92.81,6.53.55.79,1.2,1.67,2.04,1.64.83-.03,1.13-.53,2.13-.53s1.28.53,2.14.51c.89-.01,1.44-.79,1.98-1.59.64-.9.89-1.79.9-1.84-.02,0-1.72-.66-1.74-2.62Z"/>
    <path class="cls-1" d="m7.18,2.08c.44-.55.75-1.31.66-2.08-.64.03-1.45.44-1.91.99-.41.48-.78,1.26-.68,2,.72.05,1.46-.36,1.93-.91Z"/>
    <path class="cls-1" d="m20.75,12.84h-1.15l-.63-1.99h-2.2l-.6,1.99h-1.12l2.18-6.76h1.34l2.19,6.76Zm-1.97-2.82l-.57-1.76c-.06-.18-.17-.61-.34-1.27h-.02c-.07.29-.17.71-.32,1.27l-.56,1.76h1.82Z"/>
    <path class="cls-1" d="m26.34,10.34c0,.83-.22,1.48-.67,1.97-.4.43-.9.64-1.49.64-.64,0-1.1-.23-1.38-.69h-.02v2.57h-1.08v-5.25c0-.52-.01-1.06-.04-1.6h.95l.06.77h.02c.36-.58.91-.87,1.64-.87.58,0,1.05.23,1.44.68.38.46.58,1.05.58,1.8Zm-1.1.04c0-.47-.11-.87-.32-1.17-.23-.32-.55-.48-.94-.48-.27,0-.51.09-.73.27-.22.18-.36.41-.43.7-.03.13-.05.24-.05.33v.81c0,.35.11.65.33.9.22.24.5.37.85.37.41,0,.73-.16.95-.47.23-.31.34-.73.34-1.24Z"/>
    <path class="cls-1" d="m31.95,10.34c0,.83-.22,1.48-.67,1.97-.4.43-.9.64-1.49.64-.64,0-1.1-.23-1.38-.69h-.02v2.57h-1.08v-5.25c0-.52-.01-1.06-.04-1.6h.95l.06.77h.02c.36-.58.91-.87,1.64-.87.57,0,1.05.23,1.44.68.38.46.58,1.05.58,1.8Zm-1.1.04c0-.47-.11-.87-.32-1.17-.23-.32-.55-.48-.94-.48-.27,0-.51.09-.73.27-.22.18-.36.41-.43.7-.03.13-.05.24-.05.33v.81c0,.35.11.65.33.9.22.24.5.37.85.37.41,0,.73-.16.95-.47.23-.31.34-.73.34-1.24Z"/>
    <path class="cls-1" d="m38.21,10.95c0,.57-.2,1.04-.6,1.4-.44.39-1.05.59-1.84.59-.73,0-1.31-.14-1.75-.42l.25-.9c.48.29,1,.43,1.57.43.41,0,.72-.09.95-.28.23-.18.34-.43.34-.74,0-.27-.09-.51-.28-.69-.19-.19-.5-.36-.93-.52-1.18-.44-1.77-1.09-1.77-1.94,0-.56.21-1.01.62-1.37.41-.35.96-.53,1.65-.53.62,0,1.13.11,1.53.32l-.27.88c-.38-.21-.81-.31-1.29-.31-.38,0-.68.09-.89.28-.18.17-.27.37-.27.61,0,.27.1.49.31.66.18.16.51.33.98.52.58.23,1.01.51,1.28.82.27.31.41.71.41,1.17Z"/>
    <path class="cls-1" d="m41.79,8.78h-1.19v2.37c0,.6.21.9.63.9.19,0,.35-.02.48-.05l.03.82c-.21.08-.49.12-.84.12-.43,0-.76-.13-1-.39-.24-.26-.36-.7-.36-1.31v-2.46h-.71v-.81h.71v-.89l1.06-.32v1.21h1.19v.81Z"/>
    <path class="cls-1" d="m47.18,10.37c0,.75-.21,1.36-.64,1.84-.45.5-1.04.74-1.79.74s-1.29-.24-1.71-.71c-.42-.47-.64-1.07-.64-1.8s.22-1.37.66-1.85c.44-.48,1.03-.72,1.77-.72s1.29.24,1.72.71c.41.46.62,1.06.62,1.78Zm-1.12.04c0-.45-.1-.83-.29-1.16-.23-.39-.55-.58-.97-.58s-.77.19-.99.58c-.19.32-.29.71-.29,1.18s.1.83.29,1.16c.23.39.56.58.98.58s.74-.2.97-.59c.2-.33.3-.72.3-1.17Z"/>
    <path class="cls-1" d="m50.7,8.92c-.11-.02-.22-.03-.34-.03-.38,0-.67.14-.88.43-.18.25-.27.58-.27.96v2.56h-1.08v-3.34c0-.56,0-1.07-.03-1.53h.94l.04.93h.03c.11-.32.29-.58.54-.77.24-.17.5-.26.78-.26.1,0,.19,0,.27.02v1.03Z"/>
    <path class="cls-1" d="m55.54,10.17c0,.19-.01.36-.04.49h-3.25c.01.48.17.85.47,1.1.27.23.63.34,1.06.34.48,0,.92-.08,1.31-.23l.17.75c-.46.2-1.01.3-1.63.3-.76,0-1.35-.22-1.78-.67-.43-.44-.65-1.04-.65-1.79s.2-1.35.6-1.83c.42-.52.99-.78,1.7-.78s1.23.26,1.59.78c.29.41.43.93.43,1.53Zm-1.03-.28c0-.32-.06-.6-.21-.83-.19-.3-.48-.45-.86-.45-.35,0-.64.15-.86.44-.18.23-.29.51-.32.84h2.26Z"/>
    <path class="cls-1" d="m18.41,1.93c0,.6-.18,1.05-.54,1.35-.33.28-.8.42-1.41.42-.3,0-.56-.01-.78-.04V.39c.28-.05.59-.07.92-.07.58,0,1.02.13,1.32.38.33.29.5.69.5,1.23Zm-.56.01c0-.39-.1-.68-.31-.89-.21-.21-.5-.31-.9-.31-.17,0-.31.01-.43.04v2.48c.07,0,.19.01.36.01.41,0,.72-.11.94-.34s.33-.56.33-.99Z"/>
    <path class="cls-1" d="m21.39,2.45c0,.37-.11.67-.32.91-.22.24-.51.36-.88.36s-.63-.12-.84-.35c-.21-.23-.31-.53-.31-.88s.11-.67.32-.91c.21-.24.5-.35.87-.35s.63.12.85.35c.2.23.31.52.31.88Zm-.55.02c0-.22-.05-.41-.14-.57-.11-.19-.27-.29-.48-.29s-.38.1-.49.29c-.09.16-.14.35-.14.58s.05.41.14.57c.12.19.28.29.48.29s.36-.1.48-.29c.1-.16.15-.35.15-.57Z"/>
    <path class="cls-1" d="m25.38,1.27l-.75,2.39h-.49l-.31-1.04c-.08-.26-.14-.52-.19-.77h0c-.05.26-.11.52-.19.77l-.33,1.04h-.49l-.7-2.39h.55l.27,1.14c.07.27.12.53.16.77h0c.04-.2.1-.46.2-.76l.34-1.14h.43l.33,1.12c.08.27.14.54.19.79h.01c.04-.25.09-.51.16-.79l.29-1.12h.52Z"/>
    <path class="cls-1" d="m28.14,3.67h-.53v-1.37c0-.42-.16-.63-.48-.63-.16,0-.29.06-.38.17s-.15.25-.15.41v1.42h-.53v-1.71c0-.21,0-.44-.02-.68h.47l.02.37h.01c.06-.12.15-.21.28-.29.14-.09.3-.13.48-.13.22,0,.41.07.56.22.18.18.28.44.28.79v1.43Z"/>
    <path class="cls-1" d="m29.6,3.67h-.53V.17h.53v3.49Z"/>
    <path class="cls-1" d="m32.74,2.45c0,.37-.11.67-.32.91-.22.24-.51.36-.88.36s-.63-.12-.84-.35c-.21-.23-.31-.53-.31-.88s.11-.67.32-.91c.21-.24.5-.35.87-.35s.63.12.85.35c.2.23.31.52.31.88Zm-.55.02c0-.22-.05-.41-.14-.57-.11-.19-.27-.29-.48-.29s-.38.1-.49.29c-.1.16-.14.35-.14.58s.05.41.14.57c.11.19.28.29.48.29s.36-.1.48-.29c.1-.16.15-.35.15-.57Z"/>
    <path class="cls-1" d="m35.31,3.67h-.48l-.04-.28h-.01c-.16.22-.4.33-.7.33-.23,0-.41-.07-.55-.22-.12-.13-.19-.29-.19-.49,0-.29.12-.52.37-.67s.59-.23,1.03-.23v-.04c0-.32-.17-.47-.5-.47-.24,0-.44.06-.62.18l-.11-.35c.22-.14.5-.21.82-.21.63,0,.94.33.94.99v.88c0,.24.01.43.04.57Zm-.55-.82v-.37c-.59,0-.88.15-.88.48,0,.12.03.22.1.28.07.06.16.09.26.09.12,0,.23-.04.33-.11s.16-.17.18-.28c0-.03,0-.06,0-.09Z"/>
    <path class="cls-1" d="m38.34,3.67h-.47l-.03-.38h-.01c-.15.29-.41.44-.77.44-.29,0-.53-.11-.72-.34-.19-.23-.29-.52-.29-.88,0-.39.1-.7.31-.94.2-.22.45-.34.74-.34.32,0,.55.11.67.33h.01V.17h.53v2.85c0,.23,0,.45.02.65Zm-.55-1.01v-.4c0-.07,0-.12-.02-.17-.03-.13-.09-.24-.19-.32-.1-.09-.22-.13-.36-.13-.2,0-.35.08-.47.24-.11.16-.17.36-.17.61s.05.43.16.58c.12.16.27.24.47.24.17,0,.31-.07.42-.2.1-.12.15-.27.15-.44Z"/>
    <path class="cls-1" d="m42.89,2.45c0,.37-.1.67-.32.91-.22.24-.51.36-.88.36s-.63-.12-.84-.35c-.21-.23-.31-.53-.31-.88s.11-.67.32-.91c.22-.24.5-.35.87-.35s.63.12.85.35c.2.23.31.52.31.88Zm-.55.02c0-.22-.05-.41-.14-.57-.11-.19-.27-.29-.48-.29s-.38.1-.49.29c-.09.16-.14.35-.14.58s.05.41.14.57c.12.19.28.29.48.29s.36-.1.48-.29c.1-.16.15-.35.15-.57Z"/>
    <path class="cls-1" d="m45.75,3.67h-.53v-1.37c0-.42-.16-.63-.48-.63-.16,0-.29.06-.38.17-.1.12-.15.25-.15.41v1.42h-.53v-1.71c0-.21,0-.44-.02-.68h.47l.02.37h.01c.06-.12.16-.21.28-.29.14-.09.31-.13.48-.13.22,0,.41.07.56.22.18.18.28.44.28.79v1.43Z"/>
    <path class="cls-1" d="m49.33,1.67h-.59v1.16c0,.3.1.44.31.44.09,0,.17,0,.24-.02v.4c-.09.04-.23.06-.4.06-.21,0-.37-.06-.49-.19-.12-.13-.18-.34-.18-.64v-1.21h-.35v-.4h.35v-.44l.52-.16v.6h.59v.4Z"/>
    <path class="cls-1" d="m52.15,3.67h-.53v-1.36c0-.43-.16-.64-.48-.64-.25,0-.42.12-.51.37-.02.05-.03.12-.03.19v1.44h-.53V.17h.53v1.44h0c.17-.26.41-.39.72-.39.22,0,.4.07.55.22.18.18.27.45.27.8v1.42Z"/>
    <path class="cls-1" d="m55.06,2.35c0,.09,0,.18-.02.24h-1.6c0,.24.08.42.23.54.13.11.31.17.52.17.24,0,.45-.04.65-.11l.08.37c-.23.1-.49.15-.8.15-.37,0-.66-.11-.87-.33-.21-.22-.32-.51-.32-.88s.1-.66.3-.9c.21-.26.48-.38.84-.38s.61.13.78.38c.14.2.21.46.21.75Zm-.51-.14c0-.16-.03-.29-.1-.41-.09-.15-.23-.22-.42-.22-.17,0-.32.07-.42.22-.09.12-.14.25-.16.41h1.11Z"/>
  </g>
</svg>