<svg width="300" height="67" viewBox="0 0 300 67" fill="none" xmlns="http://www.w3.org/2000/svg">
<g clip-path="url(#clip0_33_2)">
<path d="M33.5658 0.0263672C7.06579 0.0263672 0 7.08108 0 33.5395C0 59.9979 7.06579 67.0526 33.5658 67.0526C60.0658 67.0526 67.1316 59.9979 67.1316 33.5395C67.1316 7.08108 60.0658 0.0263672 33.5658 0.0263672Z" fill="url(#paint0_linear_33_2)"/>
<g filter="url(#filter0_d_33_2)">
<path d="M34.0659 14.2408L22.0133 21.1904C19.8817 22.4121 19.1449 25.1578 20.3817 27.2861C21.6186 29.4143 24.3554 30.15 26.487 28.9151L36.6844 23.0296L31.8291 28.2188V48.621C31.8291 51.0776 33.8423 53.0876 36.3028 53.0876C38.7633 53.0876 40.7765 51.0776 40.7765 48.621V18.09C40.7765 17.2361 40.5133 16.3953 40.1844 15.8566C38.9212 13.7547 36.2107 12.9927 34.0791 14.2276L34.0659 14.2408Z" fill="white"/>
</g>
<mask id="mask0_33_2" style="mask-type:luminance" maskUnits="userSpaceOnUse" x="0" y="0" width="68" height="68">
<path d="M33.5658 0.0263672C7.06579 0.0263672 0 7.08108 0 33.5395C0 59.9979 7.06579 67.0526 33.5658 67.0526C60.0658 67.0526 67.1316 59.9979 67.1316 33.5395C67.1316 7.08108 60.0658 0.0263672 33.5658 0.0263672Z" fill="white"/>
</mask>
<g mask="url(#mask0_33_2)">
<path d="M23.4475 67.0526H67.1317V8.25024L23.4475 38.5185V67.0526Z" fill="url(#paint1_linear_33_2)"/>
<path d="M23.4474 67.0528H0V11.6924L23.4474 38.5187V67.0528Z" fill="url(#paint2_linear_33_2)"/>
</g>
<path d="M206.368 42.5119C203.815 42.5119 202.039 43.8519 202.039 45.8093C202.039 47.5828 203.197 48.7258 205.552 49.2513L209.25 50.1183C213.723 51.1693 215.934 53.3764 215.934 56.7264C215.934 60.8909 212.473 63.7679 207.131 63.7679C203.579 63.7679 200.737 62.6644 198.579 60.4705C197.763 59.564 197.71 58.7495 198.487 57.9875C199.302 57.173 200.171 57.2256 200.987 58.0401C202.723 59.7217 204.737 60.523 207.092 60.523C210.408 60.523 212.381 59.183 212.381 56.9366C212.381 55.255 211.131 54.112 208.684 53.534L205.171 52.7195C200.697 51.6685 198.487 49.4221 198.487 45.967C198.487 43.865 199.302 42.236 200.894 41.0405C202.487 39.845 204.408 39.2275 206.618 39.2275C209.46 39.2275 211.855 40.134 213.789 41.9075C214.75 42.814 214.842 43.6811 214.026 44.535C213.302 45.297 212.434 45.2575 211.329 44.3379C209.881 43.1424 208.25 42.525 206.381 42.525" fill="white"/>
<path d="M231.737 61.7974C231.737 62.9009 231.013 63.4264 229.618 63.4264C224.421 63.4264 222.21 61.7448 222.21 56.0564V43.1819H219.763C218.513 43.1819 217.881 42.6564 217.881 41.5528C217.881 40.4493 218.513 39.9238 219.763 39.9238H222.21V36.0483C222.21 34.7083 222.789 34.0383 223.987 34.0383C225.184 34.0383 225.763 34.7083 225.763 36.0483V39.9238H229.855C231.105 39.9238 231.737 40.4493 231.737 41.5528C231.737 42.6564 231.118 43.1819 229.855 43.1819H225.763V55.8199C225.763 59.2619 226.579 60.1815 229.895 60.1815C231.092 60.1815 231.723 60.707 231.723 61.8105" fill="white"/>
<path d="M237.894 60.2208C235.631 57.8298 234.526 54.9134 234.526 51.5108C234.526 48.1083 235.631 45.1918 237.894 42.8008C240.157 40.4098 242.986 39.2144 246.355 39.2144C249.723 39.2144 252.552 40.4098 254.815 42.8008C257.118 45.1918 258.276 48.1083 258.276 51.5108C258.276 54.9134 257.118 57.8298 254.868 60.2208C252.605 62.5724 249.776 63.7679 246.355 63.7679C242.934 63.7679 240.157 62.5724 237.894 60.2208ZM252.276 57.9218C253.815 56.2008 254.578 54.0463 254.578 51.5108C254.578 48.9753 253.815 46.8208 252.276 45.1393C250.736 43.4183 248.763 42.5512 246.368 42.5512C243.973 42.5512 242.039 43.4183 240.5 45.1393C238.96 46.8208 238.197 48.9622 238.197 51.5108C238.197 54.0594 238.96 56.2008 240.5 57.9218C242.039 59.6034 244.013 60.4573 246.368 60.4573C248.723 60.4573 250.75 59.5902 252.276 57.9218Z" fill="white"/>
<path d="M266.46 53.2322V61.4693C266.46 62.8093 265.881 63.4793 264.684 63.4793C263.487 63.4793 262.908 62.8093 262.908 61.4693V41.5138C262.908 40.2263 263.671 39.5563 264.645 39.5563C265.802 39.5563 266.381 40.2263 266.381 41.5138V42.7618C268.21 40.5547 270.763 39.4644 274.079 39.4644L275.816 39.6614C276.921 39.8979 277.447 40.4759 277.447 41.4349C277.447 42.4465 276.724 43.2085 275.434 43.0114C274.855 42.9195 274.421 42.8669 274.092 42.8669C268.75 42.8669 266.5 45.744 266.5 53.2585" fill="white"/>
<path d="M297.408 52.6144H282.263C282.605 57.5409 285.579 60.4705 290.197 60.4705C292.408 60.4705 294.329 59.656 295.921 58.0795C296.829 57.173 297.697 57.173 298.513 57.9875C299.237 58.802 299.131 59.6691 298.276 60.523C296.013 62.6775 293.329 63.7811 290.197 63.7811C286.684 63.7811 283.855 62.6775 281.737 60.4311C279.671 58.1846 278.605 55.2681 278.605 51.6685C278.605 48.0689 279.658 45.297 281.737 42.8666C283.855 40.423 286.5 39.2275 289.723 39.2275C297.026 39.2275 299.868 45.1656 299.868 50.4336C299.868 51.9181 299.052 52.6407 297.421 52.6407M282.421 49.4877H296.263C296.21 45.3232 293.71 42.5907 289.815 42.5907C285.921 42.5907 282.987 45.4677 282.408 49.4877" fill="white"/>
<path d="M103.316 30.1367C93.8813 30.1367 86.2366 37.7563 86.2366 47.1626C86.2366 56.5689 93.8813 64.1885 103.316 64.1885C112.75 64.1885 120.394 56.5689 120.394 47.1626C120.394 37.7563 112.75 30.1367 103.316 30.1367ZM103.316 56.5295C98.1313 56.5295 93.9208 52.3387 93.9208 47.1626C93.9208 41.9865 98.1313 37.7957 103.316 37.7957C108.5 37.7957 112.71 41.9865 112.71 47.1626C112.71 52.3387 108.5 56.5295 103.316 56.5295Z" fill="white"/>
<path d="M129.394 30.229C130.618 30.229 131.658 30.8333 132.408 31.7003L156.25 57.6595C156.881 58.369 157.342 59.2886 157.342 60.3264C157.342 62.4415 155.631 64.1494 153.513 64.1494C152.289 64.1494 151.263 63.545 150.5 62.678L133.237 44.2201V60.3658C133.237 62.4809 131.526 64.1888 129.408 64.1888C127.289 64.1888 125.579 62.4809 125.579 60.3658V34.0388C125.579 31.9237 127.289 30.2158 129.408 30.2158" fill="white"/>
<path d="M157.131 43.6946C157.131 45.8753 155.368 47.6357 153.184 47.6357C151 47.6357 149.237 45.8753 149.237 43.6946V34.1306C149.237 31.9498 151 30.1895 153.184 30.1895C155.368 30.1895 157.131 31.9498 157.131 34.1306V43.6946Z" fill="white"/>
<path d="M184.842 56.5561H171V51.0384H183.434C185.553 51.0384 187.263 49.3306 187.263 47.2155C187.263 45.1004 185.553 43.3925 183.434 43.3925H171V37.8749H184.842C186.96 37.8749 188.671 36.167 188.671 34.0519C188.671 31.9368 186.96 30.229 184.842 30.229H167.171C165.053 30.229 163.342 31.9368 163.342 34.0519V60.3921C163.342 62.5072 165.053 64.2151 167.171 64.2151H184.842C186.96 64.2151 188.671 62.5072 188.671 60.3921C188.671 58.277 186.96 56.5692 184.842 56.5692" fill="white"/>
<path d="M88.8813 3.28435C88.8813 1.82612 89.6313 1.3269 90.9998 1.3269H93.8682C98.6577 1.3269 101.447 3.70475 101.447 9.1173C101.447 14.5298 99.0392 17.5908 93.8024 17.5908H91.0261C89.4734 17.5908 88.8813 16.9996 88.8813 15.4757V3.29749V3.28435ZM93.8287 15.5414C97.3419 15.5414 99.0261 13.4526 99.0261 9.07789C99.0261 5.13671 97.1708 3.41573 93.6971 3.41573H91.8813C91.4208 3.41573 91.2892 3.63906 91.2892 4.05945V14.9108C91.2892 15.3575 91.5129 15.5545 91.9471 15.5545H93.8287V15.5414Z" fill="white"/>
<path d="M103.408 11.5871C103.408 7.52771 106.079 5.34692 109.197 5.34692C112.316 5.34692 114.96 7.52771 114.96 11.5871C114.96 15.6465 112.447 17.9193 109.197 17.9193C105.947 17.9193 103.408 15.6728 103.408 11.5871ZM112.513 11.5871C112.513 8.63124 110.974 7.42261 109.197 7.42261C107.421 7.42261 105.868 8.63124 105.868 11.5871C105.868 14.543 107.46 15.8699 109.197 15.8699C110.934 15.8699 112.513 14.6612 112.513 11.5871Z" fill="white"/>
<path d="M123 6.47647C123.329 5.1102 125.5 5.08392 125.842 6.47647L128.118 15.0551L130.368 6.24C130.684 4.9 133.105 5.32039 132.645 6.88373L129.816 16.6053C129.303 18.3526 126.987 18.3657 126.566 16.5659L124.355 8.51275L122.171 16.579C121.724 18.4051 119.408 18.3394 118.921 16.6053L116.026 6.94941C115.566 5.38608 118.013 4.83432 118.368 6.29255L120.71 15.1339L122.987 6.48961L123 6.47647Z" fill="white"/>
<path d="M142.684 9.86607C142.684 8.47352 141.684 7.56705 140.105 7.56705C138.802 7.56705 137.658 8.25018 137.013 9.86607V16.8157C137.013 17.4594 136.487 17.8141 135.842 17.8141C135.197 17.8141 134.631 17.4594 134.631 16.8157V6.47665C134.631 5.83293 135.184 5.47822 135.842 5.47822C136.46 5.47822 137.013 5.83293 137.013 6.47665V7.29117C137.96 6.09568 139.381 5.46509 140.881 5.46509C143.066 5.46509 145.052 6.80509 145.052 9.45881V16.8288C145.052 17.4725 144.5 17.8272 143.881 17.8272C143.223 17.8272 142.684 17.4725 142.684 16.8288V9.8792V9.86607Z" fill="white"/>
<path d="M148.039 1.01157C148.039 0.367843 148.566 0 149.237 0C149.908 0 150.434 0.38098 150.434 1.01157V16.8288C150.434 17.4726 149.881 17.8273 149.237 17.8273C148.592 17.8273 148.039 17.4726 148.039 16.8288V1.01157Z" fill="white"/>
<path d="M152.789 11.5871C152.789 7.52771 155.46 5.34692 158.579 5.34692C161.697 5.34692 164.342 7.52771 164.342 11.5871C164.342 15.6465 161.829 17.9193 158.579 17.9193C155.329 17.9193 152.789 15.6728 152.789 11.5871ZM161.895 11.5871C161.895 8.63124 160.355 7.42261 158.579 7.42261C156.802 7.42261 155.25 8.63124 155.25 11.5871C155.25 14.543 156.842 15.8699 158.579 15.8699C160.316 15.8699 161.895 14.6612 161.895 11.5871Z" fill="white"/>
<path d="M175.974 9.30138V16.7502C175.974 17.4596 175.447 17.8143 174.802 17.8143C174.158 17.8143 173.671 17.4596 173.671 16.8422V16.251C173.052 17.1312 171.421 17.7749 169.934 17.7749C167.829 17.7749 166.158 16.5663 166.158 14.2673C166.158 11.7975 168.21 10.7333 170.184 10.4049C171.224 10.2078 172.684 10.2341 173.605 10.3129V9.52471C173.605 8.0402 172.671 7.4753 170.816 7.4753C170.066 7.4753 168.895 7.80373 168.171 8.15844C166.829 8.74961 166.276 6.79216 167.381 6.26667C168.395 5.71491 170.079 5.38647 171.329 5.38647C173.96 5.38647 175.974 6.58196 175.974 9.31451V9.30138ZM173.605 13.9914V12.0077C172.816 11.8763 171.526 11.8763 170.737 12.0471C169.526 12.2967 168.552 12.7959 168.552 14.1227C168.552 15.292 169.592 15.87 170.631 15.87C172.066 15.87 173.237 15.0949 173.618 13.9914H173.605Z" fill="white"/>
<path d="M189.421 16.8155C189.421 17.4592 188.868 17.8139 188.223 17.8139C187.579 17.8139 187.026 17.4592 187.026 16.8155V16.1324C186.237 17.2622 184.908 17.8271 183.473 17.8271C181.092 17.8271 178.263 16.198 178.263 11.5869C178.263 7.35668 180.908 5.54373 183.5 5.54373C184.895 5.54373 186.237 6.16118 187.026 7.2253V1.22158C187.026 0.577851 187.579 0.223145 188.223 0.223145C188.868 0.223145 189.421 0.577851 189.421 1.22158V16.8155ZM187.039 13.2028V10.0761C186.592 8.32883 185.158 7.63256 183.987 7.63256C182.223 7.63256 180.763 8.82805 180.763 11.6C180.763 14.372 181.96 15.8302 183.987 15.8302C185.25 15.8302 186.566 15.1865 187.039 13.2028Z" fill="white"/>
<path d="M197.737 11.5871C197.737 7.52771 200.408 5.34692 203.526 5.34692C206.644 5.34692 209.289 7.52771 209.289 11.5871C209.289 15.6465 206.776 17.9193 203.526 17.9193C200.276 17.9193 197.737 15.6728 197.737 11.5871ZM206.829 11.5871C206.829 8.63124 205.289 7.42261 203.513 7.42261C201.737 7.42261 200.184 8.63124 200.184 11.5871C200.184 14.543 201.776 15.8699 203.513 15.8699C205.25 15.8699 206.829 14.6612 206.829 11.5871Z" fill="white"/>
<path d="M219.75 9.86607C219.75 8.47352 218.75 7.56705 217.171 7.56705C215.868 7.56705 214.724 8.25018 214.079 9.86607V16.8157C214.079 17.4594 213.553 17.8141 212.908 17.8141C212.263 17.8141 211.697 17.4594 211.697 16.8157V6.47665C211.697 5.83293 212.25 5.47822 212.908 5.47822C213.526 5.47822 214.079 5.83293 214.079 6.47665V7.29117C215.026 6.09568 216.447 5.46509 217.947 5.46509C220.131 5.46509 222.118 6.80509 222.118 9.45881V16.8288C222.118 17.4725 221.566 17.8272 220.947 17.8272C220.289 17.8272 219.75 17.4725 219.75 16.8288V9.8792V9.86607Z" fill="white"/>
<path d="M230.973 5.66204H232.276V3.15282C232.276 2.5091 232.829 2.18066 233.474 2.18066C234.118 2.18066 234.645 2.5091 234.645 3.15282V5.66204H237.513C238.158 5.66204 238.46 6.12184 238.46 6.67361C238.46 7.22537 238.131 7.71145 237.487 7.71145H234.645V13.7283C234.645 15.1997 235.223 15.6858 236.276 15.6858C236.763 15.6858 237.263 15.5281 237.671 15.3836C238.776 14.9632 239.421 16.8156 238.131 17.3673C237.645 17.5907 236.737 17.7614 235.96 17.7614C233.46 17.7614 232.276 16.6316 232.276 13.8334V7.69831H230.947C230.302 7.69831 230.026 7.23851 230.026 6.68674C230.026 6.13498 230.342 5.6489 230.973 5.6489V5.66204Z" fill="white"/>
<path d="M241.079 1.22158C241.079 0.577851 241.631 0.223145 242.289 0.223145C242.947 0.223145 243.46 0.577851 243.46 1.22158V7.29099C244.408 6.0955 245.829 5.46491 247.329 5.46491C249.539 5.46491 251.5 6.80491 251.5 9.45864V16.8286C251.5 17.4724 250.947 17.8271 250.329 17.8271C249.671 17.8271 249.131 17.4724 249.131 16.8286V9.87903C249.131 8.48648 248.144 7.58001 246.552 7.58001C245.25 7.58001 244.105 8.26314 243.46 9.87903V16.8286C243.46 17.4724 242.934 17.8271 242.289 17.8271C241.644 17.8271 241.079 17.4724 241.079 16.8286V1.23471V1.22158Z" fill="white"/>
<path d="M264.763 10.6414C264.763 11.7187 264.434 12.323 262.881 12.323H256.394C256.5 14.622 257.934 15.8306 259.855 15.8306C261.289 15.8306 262.289 15.4102 262.973 14.9899C264.013 14.3067 265.026 15.8438 264.013 16.6714C263.289 17.2495 261.763 17.8801 259.816 17.8801C256.263 17.8801 253.868 15.5153 253.868 11.5085C253.868 7.50162 256.671 5.39966 259.5 5.39966C262.631 5.39966 264.75 7.6724 264.75 10.6414H264.763ZM256.434 10.4181H262.421C262.355 8.47378 261.079 7.43593 259.46 7.43593C258.066 7.43593 256.684 8.43436 256.434 10.4181Z" fill="white"/>
</g>
<defs>
<filter id="filter0_d_33_2" x="17.2412" y="11.0938" width="27.7551" height="46.2139" filterUnits="userSpaceOnUse" color-interpolation-filters="sRGB">
<feFlood flood-opacity="0" result="BackgroundImageFix"/>
<feColorMatrix in="SourceAlpha" type="matrix" values="0 0 0 0 0 0 0 0 0 0 0 0 0 0 0 0 0 0 127 0" result="hardAlpha"/>
<feOffset dx="0.84" dy="0.84"/>
<feGaussianBlur stdDeviation="1.69"/>
<feColorMatrix type="matrix" values="0 0 0 0 0.839216 0 0 0 0 0.113725 0 0 0 0 0.356863 0 0 0 0.3 0"/>
<feBlend mode="normal" in2="BackgroundImageFix" result="effect1_dropShadow_33_2"/>
<feBlend mode="normal" in="SourceGraphic" in2="effect1_dropShadow_33_2" result="shape"/>
</filter>
<linearGradient id="paint0_linear_33_2" x1="-4.98684" y1="-5.2154" x2="60.6724" y2="60.9943" gradientUnits="userSpaceOnUse">
<stop stop-color="#F3742E"/>
<stop offset="1" stop-color="#ED0A72"/>
</linearGradient>
<linearGradient id="paint1_linear_33_2" x1="16.3159" y1="12.7826" x2="49.8895" y2="41.6841" gradientUnits="userSpaceOnUse">
<stop stop-color="white" stop-opacity="0.5"/>
<stop offset="1" stop-color="white" stop-opacity="0"/>
</linearGradient>
<linearGradient id="paint2_linear_33_2" x1="44.7368" y1="-3.55997" x2="11.3292" y2="40.0144" gradientUnits="userSpaceOnUse">
<stop stop-color="white" stop-opacity="0.5"/>
<stop offset="1" stop-color="white" stop-opacity="0"/>
</linearGradient>
<clipPath id="clip0_33_2">
<rect width="300" height="67" fill="white"/>
</clipPath>
</defs>
</svg>
