<?xml version="1.0" encoding="UTF-8"?>
<svg id="_레이어_2" data-name="레이어 2" xmlns="http://www.w3.org/2000/svg" xmlns:xlink="http://www.w3.org/1999/xlink" viewBox="0 0 58.83 13.87">
  <defs>
    <style>
      .cls-1 {
        fill: url(#linear-gradient);
      }

      .cls-1, .cls-2, .cls-3, .cls-4, .cls-5, .cls-6 {
        stroke-width: 0px;
      }

      .cls-7 {
        clip-path: url(#clippath-2);
      }

      .cls-2 {
        fill: none;
      }

      .cls-8 {
        clip-path: url(#clippath-1);
      }

      .cls-3 {
        fill: #fff;
      }

      .cls-4 {
        fill: url(#linear-gradient-2);
      }

      .cls-5 {
        fill: url(#linear-gradient-3);
      }

      .cls-9 {
        clip-path: url(#clippath);
      }

      .cls-6 {
        fill: #5ac9f4;
      }
    </style>
    <clipPath id="clippath">
      <path class="cls-2" d="m8.65,8.89l-2.09-2.1v-.15l2.1-2.1,2.53,1.44c.71.4.71,1.06,0,1.46l-2.48,1.41-.05.03"/>
    </clipPath>
    <linearGradient id="linear-gradient" x1="-47.33" y1="52.2" x2="-46.82" y2="52.2" gradientTransform="translate(-1133.47 -1255.31) rotate(-180) scale(24.18 -24.18)" gradientUnits="userSpaceOnUse">
      <stop offset="0" stop-color="#fee000"/>
      <stop offset=".4" stop-color="#fbbd0d"/>
      <stop offset=".77" stop-color="#f9a417"/>
      <stop offset="1" stop-color="#f99b1b"/>
    </linearGradient>
    <clipPath id="clippath-1">
      <path class="cls-2" d="m8.7,8.86l-2.14-2.14L.23,13.04c.23.25.62.28,1.05.03l7.41-4.21"/>
    </clipPath>
    <linearGradient id="linear-gradient-2" x1="-47.46" y1="52.89" x2="-46.95" y2="52.89" gradientTransform="translate(-1517.96 -1691) rotate(-180) scale(32.16 -32.16)" gradientUnits="userSpaceOnUse">
      <stop offset="0" stop-color="#ef4547"/>
      <stop offset="1" stop-color="#c6176d"/>
    </linearGradient>
    <clipPath id="clippath-2">
      <path class="cls-2" d="m8.7,4.58L1.29.37C.85.12.47.15.23.4l6.32,6.32,2.14-2.14"/>
    </clipPath>
    <linearGradient id="linear-gradient-3" x1="-45.93" y1="53.77" x2="-45.42" y2="53.77" gradientTransform="translate(-1407.29 1196.7) rotate(90) scale(26.26 -26.26)" gradientUnits="userSpaceOnUse">
      <stop offset="0" stop-color="#269e6f"/>
      <stop offset=".05" stop-color="#2ba06e"/>
      <stop offset=".47" stop-color="#52b26a"/>
      <stop offset=".8" stop-color="#6bbc68"/>
      <stop offset="1" stop-color="#74c168"/>
    </linearGradient>
  </defs>
  <g id="_격리_모드" data-name="격리 모드">
    <path class="cls-3" d="m19.02,1.77c0,.43-.13.76-.38,1.02-.29.3-.66.45-1.12.45s-.81-.15-1.12-.46c-.31-.31-.46-.68-.46-1.13s.15-.83.46-1.13c.31-.31.68-.46,1.12-.46.22,0,.43.04.63.13.2.09.36.2.48.34l-.27.27c-.2-.24-.48-.36-.83-.36-.32,0-.6.11-.83.34-.23.23-.35.52-.35.88s.12.65.35.88c.23.23.51.34.83.34.34,0,.62-.11.85-.34.15-.15.23-.35.26-.62h-1.11v-.37h1.48c.01.08.02.16.02.23"/>
    <path class="cls-3" d="m19.02,1.77h-.05c0,.42-.12.74-.36.98h0s0,0,0,0c-.28.29-.63.43-1.08.44-.43,0-.79-.15-1.08-.44-.3-.3-.45-.66-.45-1.1s.15-.8.45-1.1c.3-.3.66-.44,1.08-.44.21,0,.41.04.61.12.19.08.34.19.46.33l.04-.03-.04-.04-.27.27.04.04.04-.03c-.21-.25-.51-.38-.87-.38-.33,0-.62.12-.87.35-.24.23-.37.54-.37.92,0,.37.12.68.37.91.24.23.54.35.87.35.35,0,.65-.12.89-.36.16-.16.25-.38.27-.65v-.06s-1.11,0-1.11,0v-.26h1.43v-.05h-.05c.01.09.02.16.02.23h.1c0-.08,0-.16-.02-.24v-.04h-1.58v.47h1.16v-.05h-.05c-.02.25-.1.44-.24.58-.22.22-.49.33-.82.33-.31,0-.57-.11-.8-.32-.22-.22-.33-.49-.33-.84s.11-.63.33-.84c.23-.22.49-.32.8-.32.34,0,.6.11.8.34l.04.04.31-.31.03-.03-.03-.04c-.12-.15-.29-.27-.5-.35C17.96.04,17.74,0,17.52,0c-.45,0-.84.16-1.16.47-.32.31-.48.71-.48,1.17s.16.86.48,1.17c.32.31.71.47,1.16.47.47,0,.86-.16,1.16-.47l-.04-.04.04.04c.26-.26.39-.62.39-1.05h-.05"/>
    <polyline class="cls-3" points="21.36 .49 19.97 .49 19.97 1.46 21.22 1.46 21.22 1.83 19.97 1.83 19.97 2.79 21.36 2.79 21.36 3.17 19.58 3.17 19.58 .12 21.36 .12 21.36 .49"/>
    <polyline class="cls-3" points="21.36 .49 21.36 .44 19.92 .44 19.92 1.51 21.17 1.51 21.17 1.77 19.92 1.77 19.92 2.84 21.31 2.84 21.31 3.12 19.63 3.12 19.63 .17 21.31 .17 21.31 .49 21.36 .49 21.36 .44 21.36 .49 21.41 .49 21.41 .07 19.53 .07 19.53 3.22 21.41 3.22 21.41 2.74 20.02 2.74 20.02 1.88 21.27 1.88 21.27 1.41 20.02 1.41 20.02 .54 21.41 .54 21.41 .49 21.36 .49"/>
    <polyline class="cls-3" points="23.01 3.17 22.62 3.17 22.62 .49 21.76 .49 21.76 .12 23.86 .12 23.86 .49 23.01 .49 23.01 3.17"/>
    <polyline class="cls-3" points="23.01 3.17 23.01 3.12 22.67 3.12 22.67 .44 21.82 .44 21.82 .17 23.81 .17 23.81 .44 22.96 .44 22.96 3.17 23.01 3.17 23.01 3.12 23.01 3.17 23.06 3.17 23.06 .54 23.91 .54 23.91 .07 21.71 .07 21.71 .54 22.57 .54 22.57 3.22 23.06 3.22 23.06 3.17 23.01 3.17"/>
    <rect class="cls-3" x="25.37" y=".12" width=".39" height="3.05"/>
    <polyline class="cls-3" points="25.37 3.17 25.42 3.17 25.42 .17 25.71 .17 25.71 3.12 25.37 3.12 25.37 3.17 25.42 3.17 25.37 3.17 25.37 3.22 25.82 3.22 25.82 .07 25.32 .07 25.32 3.22 25.37 3.22 25.37 3.17"/>
    <polyline class="cls-3" points="27.5 3.17 27.11 3.17 27.11 .49 26.26 .49 26.26 .12 28.35 .12 28.35 .49 27.5 .49 27.5 3.17"/>
    <polyline class="cls-3" points="27.5 3.17 27.5 3.12 27.16 3.12 27.16 .44 26.31 .44 26.31 .17 28.3 .17 28.3 .44 27.45 .44 27.45 3.17 27.5 3.17 27.5 3.12 27.5 3.17 27.55 3.17 27.55 .54 28.4 .54 28.4 .07 26.21 .07 26.21 .54 27.06 .54 27.06 3.22 27.55 3.22 27.55 3.17 27.5 3.17"/>
    <path class="cls-3" d="m32.32,2.77c-.3.31-.67.46-1.12.46s-.82-.15-1.12-.46c-.3-.31-.45-.68-.45-1.13s.15-.82.45-1.13c.3-.31.67-.46,1.12-.46s.81.15,1.11.46c.3.31.45.69.45,1.13s-.15.82-.45,1.13m-1.95-.26c.23.23.5.34.83.34s.6-.11.83-.34c.23-.23.34-.52.34-.87s-.11-.65-.34-.87c-.22-.23-.5-.34-.83-.34s-.6.11-.83.34c-.22.23-.34.52-.34.87s.11.65.34.87Z"/>
    <path class="cls-3" d="m32.32,2.77l-.04-.04c-.29.3-.65.45-1.08.45-.43,0-.79-.15-1.08-.45h0s0,0,0,0c-.29-.3-.43-.66-.43-1.09s.14-.8.43-1.09c.29-.3.65-.45,1.08-.45.43,0,.79.15,1.08.45.29.3.44.66.44,1.09s-.14.8-.43,1.09l.07.07c.31-.32.46-.71.46-1.16,0-.45-.16-.85-.46-1.16C32.04.16,31.65,0,31.2,0c-.46,0-.85.16-1.15.48-.31.32-.46.71-.46,1.17,0,.46.15.85.46,1.16h0s0,0,0,0c.31.32.7.48,1.15.48.46,0,.85-.16,1.15-.48l-.04-.04m-1.95-.26l-.04.04c.23.24.53.36.86.36.34,0,.63-.12.86-.36.23-.24.35-.54.35-.91s-.12-.67-.35-.91c-.23-.24-.53-.36-.86-.36-.34,0-.63.12-.86.36s-.35.54-.35.91.12.67.35.91l.07-.07c-.22-.22-.32-.5-.32-.84s.11-.62.32-.84h0c.22-.22.48-.33.79-.33.31,0,.58.11.79.33.21.22.32.5.32.84,0,.34-.11.62-.32.84-.22.22-.48.33-.79.33-.31,0-.57-.11-.79-.33l-.04.04Z"/>
    <polyline class="cls-3" points="33.31 3.17 33.31 .12 33.79 .12 35.27 2.49 35.29 2.49 35.27 1.9 35.27 .12 35.66 .12 35.66 3.17 35.25 3.17 33.71 .68 33.69 .68 33.71 1.27 33.71 3.17 33.31 3.17"/>
    <polyline class="cls-3" points="33.31 3.17 33.37 3.17 33.37 .17 33.76 .17 35.24 2.54 35.34 2.54 35.32 1.9 35.32 .17 35.61 .17 35.61 3.12 35.28 3.12 33.73 .63 33.64 .63 33.66 1.27 33.66 3.12 33.31 3.12 33.31 3.17 33.37 3.17 33.31 3.17 33.31 3.22 33.76 3.22 33.76 1.27 33.74 .68 33.69 .68 33.69 .73 33.71 .73 33.71 .68 33.66 .71 35.23 3.22 35.71 3.22 35.71 .07 35.22 .07 35.22 1.9 35.24 2.49 35.29 2.49 35.29 2.44 35.27 2.44 35.27 2.49 35.32 2.46 33.82 .07 33.26 .07 33.26 3.22 33.31 3.22 33.31 3.17"/>
    <path class="cls-3" d="m29.54,7.61c-1.19,0-2.17.91-2.17,2.16s.97,2.16,2.17,2.16,2.17-.92,2.17-2.16-.97-2.16-2.17-2.16m0,3.47c-.65,0-1.22-.54-1.22-1.31s.57-1.31,1.22-1.31,1.22.53,1.22,1.31-.56,1.31-1.22,1.31Zm-4.73-3.47c-1.2,0-2.17.91-2.17,2.16s.97,2.16,2.17,2.16,2.17-.92,2.17-2.16-.97-2.16-2.17-2.16Zm0,3.47c-.65,0-1.22-.54-1.22-1.31s.57-1.31,1.22-1.31,1.22.53,1.22,1.31-.56,1.31-1.22,1.31Zm-5.63-2.81v.92h2.19c-.07.52-.24.89-.5,1.15-.32.32-.82.67-1.69.67-1.35,0-2.41-1.09-2.41-2.44s1.06-2.44,2.41-2.44c.73,0,1.26.29,1.65.65l.65-.65c-.55-.52-1.28-.92-2.3-.92-1.85,0-3.4,1.51-3.4,3.36s1.55,3.35,3.4,3.35c1,0,1.75-.33,2.34-.94.61-.61.79-1.46.79-2.14,0-.21-.02-.41-.05-.57h-3.08Zm23.01.71c-.18-.48-.73-1.37-1.85-1.37s-2.04.88-2.04,2.16c0,1.21.92,2.16,2.14,2.16.99,0,1.56-.61,1.8-.96l-.74-.49c-.24.36-.58.6-1.06.6s-.83-.22-1.05-.65l2.89-1.19-.1-.25Zm-2.95.72c-.03-.83.65-1.26,1.13-1.26.38,0,.7.19.8.46l-1.93.8Zm-2.35,2.09h.95v-6.35h-.95v6.35Zm-1.56-3.71h-.03c-.21-.25-.62-.48-1.14-.48-1.08,0-2.07.95-2.07,2.17s.99,2.15,2.07,2.15c.52,0,.92-.23,1.14-.49h.03v.31c0,.83-.44,1.27-1.15,1.27-.58,0-.94-.42-1.09-.77l-.83.34c.24.57.87,1.28,1.91,1.28,1.11,0,2.05-.65,2.05-2.25v-3.88h-.9v.35Zm-1.09,2.99c-.65,0-1.2-.55-1.2-1.3s.55-1.32,1.2-1.32,1.15.56,1.15,1.32-.51,1.3-1.15,1.3Zm12.38-5.63h-2.27v6.35h.95v-2.41h1.32c1.05,0,2.08-.76,2.08-1.97s-1.03-1.97-2.08-1.97Zm.02,3.06h-1.35v-2.18h1.35c.71,0,1.11.59,1.11,1.09s-.4,1.09-1.11,1.09Zm5.86-.91c-.69,0-1.4.3-1.69.97l.84.35c.18-.35.51-.47.87-.47.49,0,.99.29,1,.82v.07c-.17-.1-.54-.24-.99-.24-.91,0-1.83.5-1.83,1.43,0,.85.74,1.4,1.58,1.4.64,0,.99-.29,1.21-.62h.03v.49h.91v-2.43c0-1.13-.84-1.76-1.93-1.76Zm-.11,3.48c-.31,0-.74-.15-.74-.54,0-.49.54-.68,1-.68.42,0,.61.09.87.21-.07.59-.58,1-1.13,1Zm5.37-3.34l-1.09,2.75h-.03l-1.13-2.75h-1.02l1.69,3.85-.96,2.14h.99l2.61-5.99h-1.05Zm-8.54,4.06h.95v-6.35h-.95v6.35Z"/>
    <path class="cls-6" d="m.23.4c-.15.16-.23.4-.23.71v11.22c0,.31.09.56.23.71l.04.04,6.29-6.29v-.15L.27.36l-.04.04"/>
    <g class="cls-9">
      <rect class="cls-1" x="6.56" y="4.55" width="5.33" height="4.34"/>
    </g>
    <g class="cls-8">
      <rect class="cls-4" x="-.86" y="4.69" width="10.66" height="10.66" transform="translate(-5.78 6.09) rotate(-45)"/>
    </g>
    <g class="cls-7">
      <rect class="cls-5" x="-.86" y="-1.91" width="10.66" height="10.66" transform="translate(-1.11 4.16) rotate(-45)"/>
    </g>
  </g>
</svg>